PathFileType	4	(X/Y/Z)	C:/Users/opensim2020/Desktop/walking_exp_matlab/subject06_walking12_straigt_02.trc																																																																																																																																														
DataRate	CameraRate	NumFrames	NumMarkers	Units	OrigDataRate	OrigDataStartFrame	OrigNumFrames																																																																																																																																										
100	100	4	48	mm	100	1493	215																																																																																																																																										
Frame#	Time	LFHD			RFHD			LBHD			RBHD			C7			T10			CLAV			STRN			RBAK			LSHO			LUPA			LELB			LFRM			LWRA			LWRB			LFIN			RSHO			RUPA			RELB			RFRM			RWRA			RWRB			RFIN			LASI			RASI			LPSI			RPSI			LTHI			LKNE			LTIB			LANK			LHEE			LTOE			RTHI			RKNE			RTIB			RANK			RHEE			RTOE			*39			*40			*41			*42			*43			*44			*45			*46			*47		
		X1	Y1	Z1	X2	Y2	Z2	X3	Y3	Z3	X4	Y4	Z4	X5	Y5	Z5	X6	Y6	Z6	X7	Y7	Z7	X8	Y8	Z8	X9	Y9	Z9	X10	Y10	Z10	X11	Y11	Z11	X12	Y12	Z12	X13	Y13	Z13	X14	Y14	Z14	X15	Y15	Z15	X16	Y16	Z16	X17	Y17	Z17	X18	Y18	Z18	X19	Y19	Z19	X20	Y20	Z20	X21	Y21	Z21	X22	Y22	Z22	X23	Y23	Z23	X24	Y24	Z24	X25	Y25	Z25	X26	Y26	Z26	X27	Y27	Z27	X28	Y28	Z28	X29	Y29	Z29	X30	Y30	Z30	X31	Y31	Z31	X32	Y32	Z32	X33	Y33	Z33	X34	Y34	Z34	X35	Y35	Z35	X36	Y36	Z36	X37	Y37	Z37	X38	Y38	Z38	X39	Y39	Z39	X40	Y40	Z40	X41	Y41	Z41	X42	Y42	Z42	X43	Y43	Z43	X44	Y44	Z44	X45	Y45	Z45	X46	Y46	Z46	X47	Y47	Z47	X48	Y48	Z48
																																																																																																																																																	
54	0.53	-1496.40833	1682.44568	756.97449	-1366.38049	1667.37195	770.65088	-1512.79028	1621.2179	886.58887	-1385.22131	1612.14575	898.80353	-1459.06677	1457.62488	883.40143	-1449.05225	1128.87488	891.97253	-1447.70117	1390.39795	766.05707	-1452.28979	1217.12451	712.36407	-1388.77368	1281.15576	947.64874	-1613.68323	1419.18103	815.37115	-1692.41797	1221.23303	784.63947	-1709.6106	1110.82922	768.16693	-1734.35571	973.67505	708.23853	-1690.88232	873.97992	626.85144	-1734.8269	857.65466	680.54059	-1736.60657	791.16534	619.01349	-1292.16211	1416.15271	832.66089	-1212.39478	1215.29346	874.44464	-1201.48499	1093.78943	864.72162	-1182.11646	973.75244	859.15375	-1204.70703	828.01477	809.12225	-1170.45923	836.1322	866.38019	-1163.4585	756.50507	838.32208	-1546.04724	972.45746	712.04718	-1327.76477	979.69897	723.49249	-1522.94434	1000.66003	871.35638	-1355.17871	1000.11749	871.77014	-1604.02844	660.08124	794.57642	-1582.60095	496.72141	810.53076	-1574.54785	244.16844	863.3548	-1527.13416	72.77512	875.68805	-1482.40662	59.54687	916.44421	-1522.91699	39.87445	730.68268	-1265.65955	647.81415	712.30469	-1285.1261	528.62811	669.82141	-1290.37085	318.63544	818.7981	-1332.59253	171.12784	931.2002	-1382.02795	165.26282	973.5976	-1313.97046	65.11916	822.67413	-1447.82446	1714.29382	865.2688	NaN	NaN	NaN	NaN	NaN	NaN	NaN	NaN	NaN	NaN	NaN	NaN	NaN	NaN	NaN	NaN	NaN	NaN	NaN	NaN	NaN	NaN	NaN	NaN
55	0.54	-1496.82776	1682.20691	745.27173	-1366.86865	1667.18933	759.04437	-1513.65125	1621.44507	875.44373	-1385.68384	1612.28992	887.35626	-1459.59326	1457.72852	872.18597	-1449.64319	1129.10522	881.77893	-1448.19568	1390.21863	754.96246	-1453.02771	1216.83264	701.66632	-1389.64685	1281.49976	936.85516	-1614.04688	1419.36438	804.19153	-1693.29187	1222.146	771.04089	-1710.94324	1112.0116	752.44324	-1735.76172	976.8739	688.25885	-1692.31299	880.44189	603.0022	-1735.69092	861.9165	656.33118	-1737.77783	797.78473	592.73419	-1292.69409	1416.15967	821.71002	-1213.349	1215.8219	866.10168	-1202.47083	1094.16748	858.17963	-1183.11877	974.07648	854.77417	-1205.35327	827.48828	807.15442	-1171.63342	836.41052	864.52191	-1164.90845	756.25201	838.32727	-1546.99841	971.69379	703.08002	-1328.7666	980.05371	712.97925	-1522.64697	1000.5777	862.04211	-1354.84631	1000.7746	861.22522	-1603.68164	659.58118	787.86206	-1582.12122	496.26212	805.02466	-1573.88269	244.3923	860.88007	-1526.56238	73.02966	875.30255	-1482.14844	60.01691	916.14545	-1523.04407	39.8352	730.526	-1266.19897	649.52686	697.94287	-1286.50513	530.94305	654.73096	-1290.93799	314.11755	796.03674	-1333.40051	161.4846	901.27814	-1382.71423	153.4026	943.70959	-1315.29199	61.68196	787.56897	-1448.29675	1714.3208	853.5033	NaN	NaN	NaN	NaN	NaN	NaN	NaN	NaN	NaN	NaN	NaN	NaN	NaN	NaN	NaN	NaN	NaN	NaN	NaN	NaN	NaN	NaN	NaN	NaN
56	0.55	-1497.32764	1681.80884	733.64575	-1367.2749	1666.83704	747.44037	-1514.03516	1621.27844	863.88812	-1386.09668	1612.18872	875.82513	-1460.01843	1457.55884	860.92346	-1450.07788	1129.0697	871.51782	-1448.61816	1389.8623	743.90906	-1453.66919	1216.28137	691.25104	-1390.52881	1281.58057	925.99731	-1614.4043	1419.32678	792.98309	-1694.08069	1222.79626	757.71033	-1712.18799	1113.01282	737.10425	-1736.86816	979.91974	668.56897	-1693.4884	887.18341	579.55939	-1736.20105	866.1004	632.45154	-1738.38367	804.57831	566.43304	-1293.13452	1415.88501	810.81256	-1214.16687	1216.19531	857.70819	-1203.32996	1094.45813	851.66333	-1184.01782	974.28369	850.30566	-1205.89026	826.88794	804.80365	-1172.69226	836.83496	862.48474	-1165.8855	756.07715	837.48035	-1547.87854	970.70959	694.15076	-1330.07324	980.03412	703.01331	-1522.40906	1000.34235	852.69849	-1354.58032	1001.0976	850.71448	-1603.22266	658.80487	780.98853	-1581.66406	495.63846	799.47449	-1573.28833	244.40927	858.3927	-1526.06592	73.17626	874.86432	-1481.68469	60.52154	915.96405	-1523.3623	39.91946	730.76025	-1266.63696	651.02802	684.06683	-1287.5426	532.98798	640.27258	-1291.59619	309.55194	773.19983	-1333.8269	151.81879	870.91559	-1383.29883	141.44763	913.03687	-1316.52173	58.51487	751.55688	-1448.70044	1714.12512	841.75537	NaN	NaN	NaN	NaN	NaN	NaN	NaN	NaN	NaN	NaN	NaN	NaN	NaN	NaN	NaN	NaN	NaN	NaN	NaN	NaN	NaN	NaN	NaN	NaN
57	0.56	-1497.61902	1681.18298	721.84027	-1367.65552	1666.28027	735.70386	-1513.94702	1620.78125	851.87018	-1386.46533	1611.88184	864.30823	-1460.40125	1457.21558	849.64478	-1450.44556	1128.83032	861.22015	-1449.02905	1389.30469	732.73682	-1454.25671	1215.52405	680.71069	-1391.25659	1281.38879	915.13849	-1614.71411	1419.09924	781.84503	-1694.79492	1223.22705	744.56592	-1713.36462	1113.80188	722.13501	-1737.91174	982.97278	649.38123	-1694.24353	893.99207	556.45068	-1736.50195	870.49243	608.96259	-1738.6947	811.59705	540.57751	-1293.57214	1415.40369	799.77393	-1214.90637	1216.31555	849.15265	-1204.07629	1094.54529	845.07452	-1184.89429	974.36377	845.53741	-1206.85034	826.25037	802.56195	-1173.70081	837.02032	860.13519	-1167.05383	755.79858	836.38251	-1548.61694	969.53406	685.08313	-1330.88965	979.94122	692.54816	-1522.15149	999.81775	843.33527	-1354.34155	1001.06708	840.14429	-1602.82092	657.95416	774.09351	-1581.24292	494.88763	793.81042	-1572.77576	244.37521	855.80359	-1525.74561	73.42262	874.42773	-1481.12646	60.79752	915.65924	-1523.07727	39.70655	730.13452	-1266.81787	652.29907	670.69006	-1288.50659	534.47827	626.34406	-1291.91211	304.75409	750.28894	-1334.38684	142.30829	839.99884	-1383.72046	129.91887	881.85968	-1317.58521	55.6554	715.64618	-1449.09741	1713.72876	829.97803	NaN	NaN	NaN	NaN	NaN	NaN	NaN	NaN	NaN	NaN	NaN	NaN	NaN	NaN	NaN	NaN	NaN	NaN	NaN	NaN	NaN	NaN	NaN	NaN
